<svg width="33" height="34" viewBox="0 0 33 34" fill="none" xmlns="http://www.w3.org/2000/svg">
<path d="M4.125 5.52686V1.40186H6.875V5.52686H11V8.27686H6.875V12.4019H4.125V8.27686H0V5.52686H4.125ZM8.25 13.7769V9.65186H12.375V5.52686H22L24.475 8.27686H28.875C30.3875 8.27686 31.625 9.51436 31.625 11.0269V27.5269C31.625 29.0394 30.3875 30.2769 28.875 30.2769H6.875C5.3625 30.2769 4.125 29.0394 4.125 27.5269V13.7769H8.25ZM17.875 26.1519C23.9937 26.1519 27.0738 18.7544 22.7425 14.4094C18.4113 10.0781 11 13.1581 11 19.2769C11 23.0719 14.08 26.1519 17.875 26.1519ZM13.475 19.2769C13.475 23.1956 18.2188 25.1619 20.9825 22.3844C23.76 19.6206 21.7938 14.8769 17.875 14.8769C16.7092 14.8805 15.5921 15.3452 14.7677 16.1696C13.9434 16.994 13.4786 18.111 13.475 19.2769Z" fill="black" fill-opacity="0.7"/>
</svg>
